# xmcd CD database file
#
# Track frame offsets:
#	182
#	15775
#	28385
#	39592
#	54122
#	67152
#	79987
#	93355
#	104672
#	119927
#
# Disc length: 1766 seconds
#
# Revision: 0
# Processed by: cddbd v1.4PL0 Copyright (c) Steve Scherf et al.
# Submitted via: CDex 1.40Beta9
#
DISCID=8706e40a
DTITLE=Paul Hale - Memories And Me
DYEAR=1993
DGENRE=Country
TTITLE0=I'm Losing You All Over Again
TTITLE1=I Wanna' Go Home
TTITLE2=Trouble In Mind
TTITLE3=Between An Old Memory And Me
TTITLE4=Last Night You Loved Her Old Flame Out
TTITLE5=Who Did This To You
TTITLE6=Peace Of Mind
TTITLE7=Hooked On You
TTITLE8=Put Me In My Place
TTITLE9=Born To Roam
EXTD=YEAR: 1993 ID3G: 2
EXTT0=
EXTT1=
EXTT2=
EXTT3=
EXTT4=
EXTT5=
EXTT6=
EXTT7=
EXTT8=
EXTT9=
PLAYORDER=
